<svg xmlns="http://www.w3.org/2000/svg" width="1400" height="875" viewBox="0 0 1400 875" version="1.1">
	<path d="M 1219.982 185.037 C 1207.038 188.111, 1192.685 198.813, 1186.662 209.879 C 1181.274 219.780, 1179.756 227.877, 1179.422 248.500 L 1179.115 267.500 1169.807 275.317 C 1148.874 292.900, 1124.129 312.757, 1118.178 316.750 C 1102.953 326.965, 1100.210 319.713, 1107.860 289.463 C 1116.970 253.439, 1117.269 237.423, 1108.985 229.139 C 1102.792 222.946, 1088.220 223.326, 1074.945 230.028 C 1062.259 236.432, 1044.377 252.402, 1038.304 262.750 C 1036.932 265.087, 1035.500 267, 1035.122 267 C 1034.744 267, 1034.856 263.951, 1035.371 260.225 C 1036.637 251.060, 1035.618 246.418, 1031.416 242.216 C 1028.014 238.814, 1027.931 238.791, 1020.169 239.144 C 1013.382 239.453, 1011.236 240.054, 1003.924 243.691 C 990.180 250.530, 975.329 265.098, 963.163 283.676 C 959.499 289.272, 952.797 299.884, 948.270 307.257 C 931.369 334.788, 912.469 359, 907.879 359 C 906.348 359, 906 358.246, 906 354.931 C 906 343.831, 920.098 299.258, 929.048 282.061 C 933.372 273.753, 932.333 272.904, 922.904 277.042 C 917.355 279.478, 910.237 281.203, 893.540 284.162 C 861.543 289.831, 858.033 290.687, 849.354 294.930 C 827.255 305.733, 806.267 326.962, 782.057 363 C 763.681 390.354, 752.845 403.512, 744.054 409.149 C 737.018 413.661, 731.486 412.612, 729.601 406.408 C 728.884 404.046, 730.700 389.879, 735.078 363.680 C 749.775 275.738, 768.946 225.642, 789.159 222.362 C 791.582 221.968, 792.975 222.265, 793.891 223.369 C 794.990 224.693, 794.658 225.589, 791.727 229.216 C 786.738 235.388, 785.723 237.773, 785.671 243.448 C 785.582 253.023, 791.933 259.998, 801.460 260.788 C 814.234 261.848, 823.268 254.097, 823.360 242 C 823.477 226.524, 810.279 215, 792.438 215 C 779.138 215, 767.357 220.834, 753.117 234.471 C 728.980 257.587, 712.909 288.807, 701.927 333.910 C 693.367 369.069, 677.145 404.556, 660.596 424.328 C 652.145 434.426, 641.536 439.707, 635.079 437.033 C 630.179 435.003, 628.545 430.931, 628.646 421 C 628.752 410.649, 631.585 398.501, 639.922 372.657 C 648.506 346.044, 648.188 344.689, 635.905 355.545 C 626.954 363.457, 620.121 368.112, 611.624 372.089 C 605.499 374.955, 593.579 377.912, 592.499 376.833 C 592.215 376.548, 593.342 373.316, 595.005 369.650 C 601.013 356.398, 601.833 345.380, 597.443 336.889 C 594.102 330.430, 585.826 326.341, 578.206 327.385 C 565.494 329.128, 556 341.384, 556 356.051 C 556 368.472, 563.487 376.028, 578.775 379.035 C 582.199 379.709, 585 380.383, 585 380.534 C 585 382.911, 568.632 407.518, 559.117 419.446 C 535.201 449.425, 517.238 465.741, 509.174 464.809 C 506.796 464.534, 506.466 464.025, 506.190 460.198 C 506.019 457.832, 506.537 453.782, 507.340 451.198 C 509.716 443.556, 529.776 388.294, 532 383.268 C 533.156 380.653, 533.668 378.268, 533.176 377.776 C 532.685 377.285, 530.172 377.750, 527.390 378.846 C 522.787 380.661, 512.193 383.154, 482 389.528 C 453.964 395.446, 429.843 408.611, 408.496 429.642 C 397.776 440.204, 391.081 448.599, 373.522 473.500 C 353.919 501.299, 344.637 513.108, 332.030 526.286 C 305.710 553.799, 277.617 570.218, 240.961 579.510 C 235.558 580.879, 230.693 582, 230.149 582 C 229.512 582, 229.488 580.815, 230.084 578.658 C 232.463 570.040, 236.407 542.163, 241 501.500 C 247.834 440.991, 251.284 421.526, 259.105 399.357 C 264.037 385.377, 273.425 368.212, 278.395 364.087 C 279.278 363.355, 280 362.402, 280 361.971 C 280 359.288, 259.649 369.152, 249.414 376.796 C 229.594 391.599, 215.423 411.648, 207.567 436 C 203.722 447.918, 201.815 458.791, 195.991 502 C 190.725 541.067, 188.817 553.280, 184.417 576.065 L 180.833 594.630 170.666 597.921 C 118.462 614.822, 87.957 632.747, 79.331 651.588 C 74.595 661.933, 77.357 672.640, 86.999 681.309 C 93.762 687.390, 101.123 690.103, 112.602 690.747 C 127.524 691.583, 142.732 688.001, 158.506 679.934 C 169.609 674.256, 177.994 668.033, 189.359 657.038 C 206.666 640.294, 216.281 625.200, 223.480 603.474 L 227.134 592.448 237.870 589.712 C 263.917 583.075, 286.770 571.132, 312 550.971 C 330.584 536.120, 355.083 510.225, 370.832 488.783 C 373.949 484.539, 376.725 481.050, 377 481.031 C 377.275 481.011, 377.355 484.797, 377.178 489.443 C 376.388 510.184, 384.785 522, 400.318 522 C 419.760 522, 442.975 507.752, 459.790 485.500 C 462.283 482.200, 464.588 479.187, 464.912 478.805 C 465.235 478.423, 465.576 480.738, 465.670 483.949 C 465.995 495.157, 470.924 499.997, 482 499.986 C 490.200 499.979, 495.830 497.467, 506 489.277 C 528.549 471.119, 563.766 426.470, 584.898 389.250 C 589.564 381.033, 590.463 380, 592.953 380 C 598.062 380, 598.233 381.592, 594.522 394.564 C 588.526 415.521, 586.678 426.215, 586.585 440.500 C 586.503 453.028, 586.609 453.717, 589.500 459.490 C 593.332 467.140, 597.124 469.503, 605.500 469.458 C 630.046 469.326, 660.330 440.345, 685.566 392.837 C 689.170 386.052, 691.880 381.400, 691.588 382.500 C 689.766 389.368, 688.007 405.102, 688.004 414.568 C 687.999 427.994, 689.812 435.088, 694.326 439.305 C 697.279 442.063, 697.848 442.208, 703.982 441.763 C 720.919 440.537, 747.663 418.628, 772.491 385.642 C 775.654 381.439, 778.357 378, 778.497 378 C 778.637 378, 778.729 381.488, 778.701 385.750 C 778.632 396.329, 780.302 401.565, 785.355 406.618 C 789.770 411.033, 794.755 412.997, 801.500 412.977 C 813.614 412.941, 832.169 405.500, 843.508 396.131 C 849.752 390.971, 858.177 381.224, 861.990 374.750 C 864.697 370.151, 865.137 370.037, 863.930 374.243 C 862.568 378.995, 862.795 385.702, 864.425 388.855 C 866.324 392.528, 869.890 394, 876.887 394 C 895.882 394, 917.879 368.865, 960.024 299 C 969.985 282.489, 973.861 277.018, 979.945 270.882 C 991.546 259.185, 997 259.108, 997 270.642 C 997 278.121, 996.047 282.130, 984.411 323.620 C 978.685 344.035, 974 361.907, 974 363.334 C 974 368.173, 976.431 368.322, 994.197 364.575 C 1003.164 362.684, 1011.267 360.841, 1012.204 360.479 C 1014.508 359.590, 1017.586 352.802, 1018.997 345.500 C 1021.428 332.925, 1029.386 303.116, 1033.662 290.574 C 1044.002 260.240, 1053.850 246.487, 1066.701 244.432 C 1070.111 243.887, 1071.147 244.147, 1073.021 246.021 C 1075.099 248.099, 1075.221 248.890, 1074.699 256.881 C 1074.335 262.450, 1071.773 275.233, 1067.459 293 C 1059.865 324.275, 1058.878 331.773, 1061.464 338.545 C 1063.860 344.819, 1066.509 346.329, 1074.252 345.832 C 1084.335 345.184, 1096.920 338.556, 1118.500 322.525 C 1129.622 314.263, 1155.978 293.031, 1171.149 280.112 C 1175.693 276.243, 1179.567 273.234, 1179.759 273.426 C 1179.951 273.618, 1181.129 281.070, 1182.378 289.986 C 1183.929 301.062, 1184.308 306.309, 1183.574 306.549 C 1147.475 318.362, 1126.924 333.504, 1127.022 348.218 C 1127.091 358.591, 1138.267 368.855, 1152.799 371.892 C 1160.179 373.435, 1174.391 373.274, 1183.422 371.546 C 1208.793 366.692, 1221.880 348.771, 1222.344 318.251 L 1222.500 308.002 1235.500 308.007 C 1257.445 308.015, 1276.920 311.847, 1291.500 319.027 C 1302.843 324.612, 1309.119 330.438, 1313.634 339.574 C 1316.914 346.211, 1317.320 347.871, 1317.278 354.478 C 1317.238 360.634, 1316.698 363.048, 1314.138 368.518 C 1308.383 380.818, 1294.740 392.535, 1275.750 401.488 C 1258.362 409.686, 1246.740 412.321, 1228 412.315 C 1214.132 412.310, 1208.135 411.351, 1193.704 406.829 C 1184.321 403.889, 1182.065 403.678, 1183.418 405.868 C 1184.551 407.700, 1199.521 412.865, 1209.735 414.946 C 1238.210 420.749, 1267.259 414.372, 1293.965 396.454 C 1301.957 391.092, 1313.575 379.391, 1317.253 373 C 1326.814 356.386, 1324.050 337.622, 1310.159 324.841 C 1294.439 310.378, 1271.500 303.146, 1235.731 301.375 C 1222.839 300.737, 1221.932 300.560, 1221.500 298.597 C 1220.784 295.344, 1216.264 264.588, 1214.961 254.107 L 1213.793 244.714 1218.647 240.701 C 1229.018 232.124, 1241.646 218.423, 1244.437 212.717 C 1246.887 207.711, 1247.175 206.138, 1246.844 199.578 C 1246.425 191.277, 1244.449 187.999, 1238.282 185.371 C 1234.777 183.878, 1225.569 183.709, 1219.982 185.037 M 1220.182 201.030 C 1214.384 204.565, 1212.895 209.737, 1213.221 225.210 L 1213.500 238.500 1222.083 230 C 1235.049 217.161, 1238.269 208.115, 1232.077 201.923 C 1228.586 198.432, 1224.898 198.155, 1220.182 201.030 M 873.312 298.049 C 867.817 300.803, 855.761 313.507, 849.139 323.523 C 842.999 332.810, 836.049 346.740, 832.935 356 C 829.903 365.019, 829.745 375.828, 832.590 379.674 C 839.502 389.019, 849.588 384.900, 860.786 368.158 C 866.798 359.171, 869.492 353.011, 876.819 331.500 C 887.413 300.400, 887.842 296.766, 880.982 296.226 C 878.946 296.065, 875.761 296.823, 873.312 298.049 M 1177 314.625 C 1151.724 323.116, 1131.380 341.438, 1133.363 353.924 C 1134.063 358.334, 1139.250 363.404, 1144.656 364.962 C 1150.873 366.755, 1161.161 367.323, 1165.596 366.118 C 1175.090 363.540, 1182.420 354.251, 1185.022 341.500 C 1186.388 334.805, 1186.606 314.205, 1185.324 312.927 C 1184.871 312.475, 1181.125 313.239, 1177 314.625 M 250.052 320.562 C 207.248 326.623, 173.066 343.594, 143.500 373.463 C 114.036 403.229, 99.397 436.709, 103.975 463.854 C 106.465 478.616, 117.281 494.519, 128.623 500.097 C 132.388 501.948, 135.096 502.489, 140.500 502.468 C 148.773 502.436, 153.746 500.237, 159.198 494.203 C 163.738 489.177, 165.333 484.281, 164.805 476.984 C 164.065 466.755, 157.803 460.408, 147.278 459.222 C 134.479 457.779, 123.046 470.387, 125.645 483.078 C 126.200 485.785, 126.345 488, 125.968 488 C 124.061 488, 115.599 479.142, 113.444 474.890 C 105.313 458.844, 106.267 438.383, 116.056 418.870 C 131.087 388.908, 161.071 359.562, 192.500 344.055 C 229.826 325.639, 267.821 321.806, 292.500 333.969 C 309.601 342.397, 324.433 362.513, 330.116 384.988 C 333.173 397.078, 332.492 415.961, 328.583 427.500 C 322.932 444.182, 313.922 458.007, 298.045 474.361 C 286.147 486.615, 271.199 498.364, 260.921 503.540 C 257.115 505.457, 254 507.307, 254 507.651 C 254 508.599, 266.344 507.151, 276.814 504.976 C 329.098 494.110, 368.658 459.880, 379.067 416.500 C 381.461 406.521, 381.646 388.388, 379.450 379 C 378.613 375.425, 375.866 368.247, 373.344 363.049 C 364.906 345.654, 348.338 332.102, 326.971 325.118 C 313.963 320.866, 306.294 319.882, 283 319.475 C 266.651 319.190, 257.644 319.487, 250.052 320.562 M 580.500 333.792 C 577.071 334.498, 572.076 338.935, 569.787 343.308 C 568.189 346.361, 567.580 349.310, 567.546 354.160 C 567.506 359.999, 567.874 361.352, 570.531 365.136 C 573.618 369.533, 580.444 374.407, 585.056 375.509 C 587.488 376.090, 587.755 375.716, 590.556 367.810 C 592.885 361.235, 593.500 357.814, 593.500 351.427 C 593.500 344.342, 593.171 342.857, 590.816 339.298 C 588.085 335.171, 584.107 333.048, 580.500 333.792 M 512.798 338.048 C 510.096 340.750, 509.814 341.573, 510.313 345.297 C 511.038 350.699, 514.649 354, 519.833 354 C 524.355 354, 527.310 352.080, 528.975 348.059 C 533.062 338.193, 520.455 330.391, 512.798 338.048 M 459.388 345.942 C 456.387 347.209, 453 351.844, 453 354.685 C 453 358.278, 455.505 362.453, 458.472 363.805 C 462.978 365.858, 465.959 365.241, 469.727 361.473 C 472.846 358.354, 473.184 357.523, 472.658 354.277 C 471.614 347.849, 464.886 343.622, 459.388 345.942 M 476.897 396.993 C 468.016 401.687, 450.938 423.988, 441.087 443.756 C 434.236 457.503, 431 467.693, 431 475.517 C 431 484.234, 432.907 486.500, 440.240 486.500 C 455.305 486.500, 468.361 468.585, 482.512 428.500 C 491.517 402.990, 491.786 394.929, 483.628 395.044 C 481.907 395.069, 478.879 395.945, 476.897 396.993 M 595.500 537.412 C 589.509 540.074, 586 545.868, 586 553.097 C 586 570.503, 607.778 576.893, 618.438 562.615 C 620.051 560.454, 620.500 558.362, 620.500 553 C 620.500 545.352, 618.944 542.289, 613.010 538.250 C 609.160 535.630, 600.448 535.213, 595.500 537.412 M 895.150 538.527 C 888.704 543.951, 890.294 551.204, 898.660 554.539 C 906.947 557.843, 908.705 560.152, 905.429 563.429 C 903.369 565.488, 899.135 565.432, 896.793 563.313 C 895.037 561.724, 894.806 561.749, 892.797 563.759 C 891.020 565.536, 890.879 566.149, 891.949 567.438 C 894.048 569.968, 900.426 571.232, 904.946 570.014 C 909.917 568.676, 913 564.876, 913 560.088 C 913 554.902, 910.951 552.615, 904.050 550.098 C 898.880 548.214, 898 547.533, 898 545.425 C 898 541.939, 901.852 540.282, 905.980 541.992 C 908.669 543.106, 909.306 543.033, 911.105 541.405 L 913.158 539.547 910.968 537.773 C 907.475 534.945, 898.923 535.352, 895.150 538.527 M 961.859 538.101 C 952.085 543.920, 951.128 560.683, 960.202 567.144 C 969.249 573.586, 982.681 570.317, 987.095 560.599 C 989.578 555.130, 989.473 550.349, 986.750 545.020 C 983.454 538.570, 980.228 536.622, 972.218 536.248 C 966.743 535.992, 964.826 536.335, 961.859 538.101 M 1006.209 537.668 C 994.377 543.499, 994.167 562.516, 1005.869 568.393 C 1012.281 571.613, 1020.281 570.964, 1024.639 566.870 L 1027.084 564.572 1024.836 562.876 C 1022.709 561.272, 1022.455 561.283, 1020.159 563.090 C 1015.618 566.661, 1007.829 564.787, 1004.965 559.433 C 1004.159 557.928, 1003.544 554.723, 1003.597 552.313 C 1003.776 544.206, 1012.001 538.881, 1018.863 542.429 C 1021.420 543.752, 1022.326 543.813, 1023.985 542.777 C 1026.732 541.061, 1026.535 540.297, 1022.750 537.989 C 1018.734 535.540, 1010.836 535.387, 1006.209 537.668 M 1118.024 538.187 C 1116.112 539.485, 1113.485 542.112, 1112.187 544.024 C 1110.176 546.986, 1109.880 548.464, 1110.183 554.022 C 1110.774 564.829, 1116.818 570.443, 1127.742 570.331 C 1137.748 570.228, 1144.367 563.351, 1144.432 552.992 C 1144.498 542.518, 1138.961 536.782, 1128.218 536.194 C 1122.446 535.879, 1121.010 536.159, 1118.024 538.187 M 551 553.500 L 551 570 554 570 L 557 570 557.023 561.750 L 557.046 553.500 564.773 561.785 C 571.434 568.928, 572.948 570.066, 575.750 570.035 C 577.538 570.016, 579 569.657, 579 569.238 C 579 568.819, 575.557 564.736, 571.350 560.163 L 563.700 551.849 571.075 544.425 L 578.450 537 574.500 537 C 570.964 537, 569.841 537.704, 563.775 543.723 L 557 550.446 557 543.723 L 557 537 554 537 L 551 537 551 553.500 M 631.225 553.250 L 631.500 569.500 634.250 569.816 L 637 570.133 637 558.066 C 637 551.430, 637.337 546.011, 637.750 546.025 C 638.163 546.039, 641.965 551.439, 646.201 558.025 C 653.663 569.629, 654.011 570, 657.451 570 L 661 570 661 553.500 L 661 537 658 537 L 655 537 654.973 548.750 L 654.946 560.500 647.299 548.750 L 639.651 537 635.301 537 L 630.950 537 631.225 553.250 M 673 553.500 L 673 570 676 570 L 679 570 679 563 L 679 556 686.566 556 L 694.133 556 693.816 553.250 C 693.507 550.564, 693.332 550.493, 686.250 550.206 L 679 549.912 679 545.998 L 679 542.084 686.750 541.792 C 693.922 541.522, 694.524 541.332, 694.820 539.250 C 695.134 537.033, 694.977 537, 684.070 537 L 673 537 673 553.500 M 705 553.500 L 705 570 716 570 L 727 570 727 567 L 727 564 719 564 L 711 564 711 559.500 L 711 555 718.500 555 C 725.833 555, 726 554.944, 726 552.500 C 726 550.056, 725.833 550, 718.500 550 L 711 550 711 546.042 L 711 542.084 718.750 541.792 C 725.922 541.522, 726.524 541.332, 726.820 539.250 C 727.134 537.033, 726.977 537, 716.070 537 L 705 537 705 553.500 M 738 553.500 L 738 570 740.960 570 L 743.919 570 744.210 561.895 L 744.500 553.789 751.415 561.895 C 757.839 569.424, 758.603 570, 762.165 570 C 764.274 570, 766 569.638, 766 569.196 C 766 568.754, 764.385 566.842, 762.411 564.946 C 760.437 563.051, 756.993 559.330, 754.758 556.678 L 750.693 551.856 758.072 544.428 L 765.450 537 761.500 537 C 757.964 537, 756.841 537.704, 750.775 543.723 L 744 550.446 744 543.723 L 744 537 741 537 L 738 537 738 553.500 M 771 539.500 C 771 541.833, 771.333 542, 776 542 L 781 542 781 556 L 781 570 784 570 L 787 570 787 556 L 787 542 792 542 C 796.667 542, 797 541.833, 797 539.500 L 797 537 784 537 L 771 537 771 539.500 M 803.552 539.750 C 804.532 541.263, 807.284 545.420, 809.667 548.989 C 813.784 555.155, 814 555.841, 814 562.739 L 814 570 817 570 L 820 570 820 562.721 C 820 555.527, 820.070 555.335, 825.963 546.221 L 831.926 537 828.420 537 C 825.214 537, 824.596 537.514, 821.207 542.989 C 819.168 546.283, 817.275 548.976, 817 548.974 C 816.725 548.972, 814.925 546.284, 813 543 C 809.686 537.348, 809.294 537.029, 805.635 537.015 L 801.770 537 803.552 539.750 M 840 553.500 L 840 570 843 570 L 846 570 846 563 C 846 556.403, 846.129 556.001, 848.250 556.015 C 850.003 556.027, 851.284 557.518, 854.051 562.765 C 857.187 568.713, 857.975 569.537, 860.801 569.813 C 862.560 569.986, 864 569.680, 864 569.135 C 864 568.590, 862.358 565.387, 860.351 562.019 L 856.703 555.894 860.079 553.075 C 862.938 550.688, 863.455 549.609, 863.455 546.022 C 863.455 542.631, 862.901 541.311, 860.672 539.394 C 858.184 537.255, 856.937 537, 848.944 537 L 840 537 840 553.500 M 921 539.445 C 921 541.653, 921.461 541.920, 925.750 542.195 L 930.500 542.500 930.779 556.314 L 931.057 570.127 933.779 569.814 L 936.500 569.500 936.778 555.750 L 937.056 542 942.028 542 C 946.665 542, 947 541.831, 947 539.500 L 947 537 934 537 L 921 537 921 539.445 M 1035.225 553.250 L 1035.500 569.500 1038.250 569.816 L 1041 570.133 1041 561.983 C 1041 557.501, 1041.384 553.983, 1041.854 554.167 C 1042.324 554.350, 1045.750 557.987, 1049.469 562.250 C 1055.729 569.427, 1056.516 570, 1060.114 570 C 1062.251 570, 1064 569.723, 1064 569.385 C 1064 569.047, 1060.344 564.908, 1055.876 560.187 L 1047.752 551.605 1055.344 544.302 L 1062.935 537 1058.552 537 C 1054.410 537, 1053.856 537.357, 1048.462 543.500 C 1045.324 547.075, 1042.400 550, 1041.964 550 C 1041.529 550, 1041.246 547.075, 1041.336 543.499 L 1041.500 536.998 1038.225 536.999 L 1034.950 537 1035.225 553.250 M 1072 553.500 L 1072 570 1075 570 L 1078 570 1078 562.458 L 1078 554.916 1085.750 555.208 L 1093.500 555.500 1093.795 562.812 C 1094.089 570.108, 1094.096 570.123, 1096.795 569.812 L 1099.500 569.500 1099.775 553.250 L 1100.050 537 1096.775 536.998 L 1093.500 536.996 1093.500 543.248 L 1093.500 549.500 1086 549.500 L 1078.500 549.500 1078.202 543.250 C 1077.908 537.062, 1077.875 537, 1074.952 537 L 1072 537 1072 553.500 M 1155 553.500 L 1155 570 1165 570 L 1175 570 1175 567 L 1175 564 1168 564 L 1161 564 1161 550.500 L 1161 537 1158 537 L 1155 537 1155 553.500 M 1184 553.512 L 1184 570.133 1186.750 569.816 L 1189.500 569.500 1190 557 L 1190.500 544.500 1195.073 557 C 1198.762 567.084, 1200.049 569.559, 1201.730 569.807 C 1203.947 570.134, 1203.537 570.981, 1210.600 551.500 L 1213.500 543.500 1213.779 556.814 L 1214.059 570.127 1216.779 569.814 L 1219.500 569.500 1219.775 553.250 L 1220.050 537 1215.162 537 L 1210.275 537 1206.429 547.500 C 1204.314 553.275, 1202.294 558, 1201.940 558 C 1201.587 558, 1199.537 553.388, 1197.386 547.750 L 1193.475 537.500 1188.738 537.195 L 1184 536.890 1184 553.512 M 598.321 542.613 C 590.317 546.561, 590.470 560.160, 598.561 563.846 C 606.290 567.367, 615 561.585, 615 552.933 C 615 548.924, 611.781 543.806, 608.360 542.377 C 604.165 540.624, 602.263 540.669, 598.321 542.613 M 965.763 542.511 C 960.461 545.492, 958.477 553.154, 961.494 558.989 C 963.587 563.037, 966.797 565, 971.323 565 C 974.399 565, 975.902 564.298, 978.600 561.600 C 981.575 558.625, 982 557.565, 982 553.116 C 982 548.982, 981.486 547.456, 979.250 544.954 C 975.910 541.216, 969.977 540.141, 965.763 542.511 M 1121.763 542.511 C 1116.134 545.676, 1114.365 553.805, 1118.004 559.775 C 1121.803 566.006, 1129.363 566.837, 1134.600 561.600 C 1137.575 558.625, 1138 557.565, 1138 553.116 C 1138 548.982, 1137.486 547.456, 1135.250 544.954 C 1131.910 541.216, 1125.977 540.141, 1121.763 542.511 M 846 546.052 L 846 550.105 851.250 549.802 C 856.214 549.516, 856.518 549.342, 856.830 546.609 C 857.236 543.051, 855.780 542.035, 850.250 542.015 L 846 542 846 546.052 M 157 612.912 C 136.426 620.151, 132.371 621.795, 120.792 627.583 C 96.065 639.944, 85.910 650.629, 85.229 665 C 84.823 673.566, 87.410 678.307, 94.474 681.941 C 103.300 686.482, 119.483 684.882, 134.755 677.957 C 147.207 672.311, 154.555 664.034, 163.551 645.520 C 168.413 635.515, 177 611.809, 177 608.392 C 177 606.184, 174.533 606.742, 157 612.912" stroke="none" fill="black" fill-rule="evenodd"/>
</svg>